<?xml version="1.0" encoding="utf-8"?>
<!-- Generator: Adobe Illustrator 18.0.0, SVG Export Plug-In . SVG Version: 6.00 Build 0)  -->
<!DOCTYPE svg PUBLIC "-//W3C//DTD SVG 1.1//EN" "http://www.w3.org/Graphics/SVG/1.1/DTD/svg11.dtd">
<svg version="1.1" id="Layer_1" xmlns="http://www.w3.org/2000/svg" xmlns:xlink="http://www.w3.org/1999/xlink" x="0px" y="0px"
	 viewBox="0 792 1728 496" enable-background="new 0 792 1728 496" xml:space="preserve">
<g id="BUBON">
	<g enable-background="new    ">
		<path d="M514.4,840.3H567c21.2,0,37.4,2.4,48.8,7.3c11.4,4.8,20.3,12.3,26.9,22.3c6.6,10,9.9,21.2,9.9,33.4
			c0,11.4-2.9,21.8-8.7,31.2c-5.8,9.4-14.3,17-25.4,22.8c13.9,4.5,24.5,9.9,32,16c7.5,6.1,13.3,13.5,17.4,22.2
			c4.2,8.7,6.2,18.1,6.2,28.3c0,20.6-7.8,38.1-23.5,52.4c-15.7,14.3-36.7,21.4-63,21.4h-73.3V840.3z M540.5,865.5v82.4h15.3
			c18.5,0,32.2-1.7,40.9-5c8.7-3.3,15.6-8.6,20.7-15.7s7.6-15.1,7.6-23.9c0-11.8-4.3-21-12.8-27.7c-8.5-6.7-22.1-10.1-40.8-10.1
			H540.5z M540.5,973.8v98.7h33.1c19.5,0,33.8-1.8,42.9-5.5c9.1-3.7,16.4-9.4,21.9-17.2c5.5-7.8,8.3-16.3,8.3-25.4
			c0-11.4-3.9-21.4-11.6-29.9c-7.7-8.5-18.4-14.3-32-17.5c-9.1-2.1-24.9-3.1-47.4-3.1H540.5z"/>
		<path d="M717.8,840.3h26.7v155.4c0,18.4,0.4,29.9,1.1,34.5c1.3,10.1,4.4,18.6,9.2,25.5c4.8,6.8,12.3,12.5,22.3,17.1
			c10,4.6,20.1,6.9,30.3,6.9c8.8,0,17.3-1.8,25.4-5.4c8.1-3.6,14.9-8.6,20.3-15c5.4-6.4,9.4-14.2,12-23.3c1.8-6.5,2.7-19.9,2.7-40.2
			V840.3h26.7v155.4c0,23-2.3,41.6-7,55.7c-4.7,14.2-14,26.5-27.9,37c-14,10.5-30.9,15.7-50.7,15.7c-21.5,0-40-5-55.3-14.9
			c-15.4-9.9-25.6-23-30.8-39.4c-3.3-10-4.9-28.1-4.9-54.2V840.3z"/>
		<path d="M950.8,840.3h52.6c21.2,0,37.4,2.4,48.8,7.3c11.4,4.8,20.3,12.3,26.9,22.3c6.6,10,9.9,21.2,9.9,33.4
			c0,11.4-2.9,21.8-8.7,31.2c-5.8,9.4-14.3,17-25.4,22.8c13.9,4.5,24.5,9.9,32,16c7.5,6.1,13.3,13.5,17.4,22.2
			c4.2,8.7,6.2,18.1,6.2,28.3c0,20.6-7.8,38.1-23.5,52.4c-15.7,14.3-36.7,21.4-63,21.4h-73.3V840.3z M976.9,865.5v82.4h15.3
			c18.5,0,32.2-1.7,40.9-5c8.7-3.3,15.6-8.6,20.7-15.7c5.1-7.2,7.6-15.1,7.6-23.9c0-11.8-4.3-21-12.8-27.7
			c-8.5-6.7-22.1-10.1-40.8-10.1H976.9z M976.9,973.8v98.7h33.1c19.5,0,33.8-1.8,42.9-5.5c9.1-3.7,16.4-9.4,21.9-17.2
			c5.5-7.8,8.3-16.3,8.3-25.4c0-11.4-3.9-21.4-11.6-29.9c-7.7-8.5-18.4-14.3-32-17.5c-9.1-2.1-24.9-3.1-47.4-3.1H976.9z"/>
		<path d="M1280.4,833.8c40.4,0,74.2,13,101.4,39c27.2,26,40.8,58,40.8,96.1c0,37.7-13.6,69.6-40.7,95.9s-60.3,39.4-99.4,39.4
			c-39.6,0-73-13.1-100.2-39.2c-27.2-26.1-40.8-57.7-40.8-94.8c0-24.7,6.2-47.6,18.6-68.8c12.4-21.1,29.3-37.6,50.7-49.6
			C1232.3,839.8,1255.4,833.8,1280.4,833.8z M1281.6,858.9c-19.7,0-38.5,5-56.1,14.9c-17.7,9.9-31.5,23.3-41.4,40.1
			c-9.9,16.8-14.9,35.5-14.9,56.2c0,30.6,11,56.4,33,77.5c22,21.1,48.5,31.6,79.5,31.6c20.7,0,39.9-4.8,57.5-14.5
			c17.6-9.7,31.4-22.9,41.2-39.7c9.9-16.8,14.8-35.5,14.8-56c0-20.4-4.9-38.9-14.8-55.4c-9.9-16.5-23.8-29.7-41.7-39.7
			C1320.7,863.8,1301.7,858.9,1281.6,858.9z"/>
		<path d="M1466.3,1097.7V840.3h5.8l177.6,197.3V840.3h26.3v257.4h-6l-176.1-194.9v194.9H1466.3z"/>
	</g>
	<g enable-background="new    ">
		<path fill="none" stroke="#000000" stroke-width="2" stroke-miterlimit="10" d="M514.4,840.3H567c21.2,0,37.4,2.4,48.8,7.3
			c11.4,4.8,20.3,12.3,26.9,22.3c6.6,10,9.9,21.2,9.9,33.4c0,11.4-2.9,21.8-8.7,31.2c-5.8,9.4-14.3,17-25.4,22.8
			c13.9,4.5,24.5,9.9,32,16c7.5,6.1,13.3,13.5,17.4,22.2c4.2,8.7,6.2,18.1,6.2,28.3c0,20.6-7.8,38.1-23.5,52.4
			c-15.7,14.3-36.7,21.4-63,21.4h-73.3V840.3z M540.5,865.5v82.4h15.3c18.5,0,32.2-1.7,40.9-5c8.7-3.3,15.6-8.6,20.7-15.7
			s7.6-15.1,7.6-23.9c0-11.8-4.3-21-12.8-27.7c-8.5-6.7-22.1-10.1-40.8-10.1H540.5z M540.5,973.8v98.7h33.1
			c19.5,0,33.8-1.8,42.9-5.5c9.1-3.7,16.4-9.4,21.9-17.2c5.5-7.8,8.3-16.3,8.3-25.4c0-11.4-3.9-21.4-11.6-29.9
			c-7.7-8.5-18.4-14.3-32-17.5c-9.1-2.1-24.9-3.1-47.4-3.1H540.5z"/>
		<path fill="none" stroke="#000000" stroke-width="2" stroke-miterlimit="10" d="M717.8,840.3h26.7v155.4c0,18.4,0.4,29.9,1.1,34.5
			c1.3,10.1,4.4,18.6,9.2,25.5c4.8,6.8,12.3,12.5,22.3,17.1c10,4.6,20.1,6.9,30.3,6.9c8.8,0,17.3-1.8,25.4-5.4
			c8.1-3.6,14.9-8.6,20.3-15c5.4-6.4,9.4-14.2,12-23.3c1.8-6.5,2.7-19.9,2.7-40.2V840.3h26.7v155.4c0,23-2.3,41.6-7,55.7
			c-4.7,14.2-14,26.5-27.9,37c-14,10.5-30.9,15.7-50.7,15.7c-21.5,0-40-5-55.3-14.9c-15.4-9.9-25.6-23-30.8-39.4
			c-3.3-10-4.9-28.1-4.9-54.2V840.3z"/>
		<path fill="none" stroke="#000000" stroke-width="2" stroke-miterlimit="10" d="M950.8,840.3h52.6c21.2,0,37.4,2.4,48.8,7.3
			c11.4,4.8,20.3,12.3,26.9,22.3c6.6,10,9.9,21.2,9.9,33.4c0,11.4-2.9,21.8-8.7,31.2c-5.8,9.4-14.3,17-25.4,22.8
			c13.9,4.5,24.5,9.9,32,16c7.5,6.1,13.3,13.5,17.4,22.2c4.2,8.7,6.2,18.1,6.2,28.3c0,20.6-7.8,38.1-23.5,52.4
			c-15.7,14.3-36.7,21.4-63,21.4h-73.3V840.3z M976.9,865.5v82.4h15.3c18.5,0,32.2-1.7,40.9-5c8.7-3.3,15.6-8.6,20.7-15.7
			c5.1-7.2,7.6-15.1,7.6-23.9c0-11.8-4.3-21-12.8-27.7c-8.5-6.7-22.1-10.1-40.8-10.1H976.9z M976.9,973.8v98.7h33.1
			c19.5,0,33.8-1.8,42.9-5.5c9.1-3.7,16.4-9.4,21.9-17.2c5.5-7.8,8.3-16.3,8.3-25.4c0-11.4-3.9-21.4-11.6-29.9
			c-7.7-8.5-18.4-14.3-32-17.5c-9.1-2.1-24.9-3.1-47.4-3.1H976.9z"/>
		<path fill="none" stroke="#000000" stroke-width="2" stroke-miterlimit="10" d="M1280.4,833.8c40.4,0,74.2,13,101.4,39
			c27.2,26,40.8,58,40.8,96.1c0,37.7-13.6,69.6-40.7,95.9s-60.3,39.4-99.4,39.4c-39.6,0-73-13.1-100.2-39.2
			c-27.2-26.1-40.8-57.7-40.8-94.8c0-24.7,6.2-47.6,18.6-68.8c12.4-21.1,29.3-37.6,50.7-49.6
			C1232.3,839.8,1255.4,833.8,1280.4,833.8z M1281.6,858.9c-19.7,0-38.5,5-56.1,14.9c-17.7,9.9-31.5,23.3-41.4,40.1
			c-9.9,16.8-14.9,35.5-14.9,56.2c0,30.6,11,56.4,33,77.5c22,21.1,48.5,31.6,79.5,31.6c20.7,0,39.9-4.8,57.5-14.5
			c17.6-9.7,31.4-22.9,41.2-39.7c9.9-16.8,14.8-35.5,14.8-56c0-20.4-4.9-38.9-14.8-55.4c-9.9-16.5-23.8-29.7-41.7-39.7
			C1320.7,863.8,1301.7,858.9,1281.6,858.9z"/>
		<path fill="none" stroke="#000000" stroke-width="2" stroke-miterlimit="10" d="M1466.3,1097.7V840.3h5.8l177.6,197.3V840.3h26.3
			v257.4h-6l-176.1-194.9v194.9H1466.3z"/>
	</g>
	<g enable-background="new    ">
		<path fill="#8C150D" d="M573.2,1146.7c17.7,0,32.5,5.7,44.4,17.1c11.9,11.4,17.9,25.4,17.9,42c0,16.5-5.9,30.5-17.8,41.9
			c-11.9,11.5-26.4,17.2-43.5,17.2c-17.3,0-31.9-5.7-43.8-17.1c-11.9-11.4-17.9-25.3-17.9-41.5c0-10.8,2.7-20.8,8.1-30.1
			c5.4-9.2,12.8-16.5,22.2-21.7C552.2,1149.3,562.3,1146.7,573.2,1146.7z M573.8,1157.6c-8.6,0-16.8,2.2-24.6,6.5
			c-7.7,4.3-13.8,10.2-18.1,17.5c-4.3,7.4-6.5,15.5-6.5,24.6c0,13.4,4.8,24.7,14.4,33.9c9.6,9.2,21.2,13.8,34.8,13.8
			c9.1,0,17.4-2.1,25.1-6.4c7.7-4.2,13.7-10,18-17.4c4.3-7.4,6.5-15.5,6.5-24.5c0-8.9-2.2-17-6.5-24.2c-4.3-7.2-10.4-13-18.2-17.3
			C590.9,1159.8,582.5,1157.6,573.8,1157.6z"/>
		<path fill="#8C150D" d="M654.1,1149.5h23.2c13,0,21.7,0.5,26.3,1.5c6.9,1.5,12.6,4.8,16.9,9.8c4.3,5,6.5,11.2,6.5,18.6
			c0,6.1-1.5,11.5-4.5,16.2c-3,4.6-7.3,8.2-12.8,10.5c-5.6,2.4-13.2,3.6-23,3.6l42,52.3h-14.4l-42-52.3h-6.6v52.3h-11.7V1149.5z
			 M665.8,1160.5v38.3l20.1,0.2c7.8,0,13.5-0.7,17.3-2.1c3.7-1.4,6.6-3.7,8.7-6.8c2.1-3.1,3.1-6.6,3.1-10.5c0-3.8-1.1-7.2-3.2-10.3
			c-2.1-3.1-4.9-5.3-8.3-6.6c-3.4-1.3-9.2-2-17.2-2H665.8z"/>
		<path fill="#8C150D" d="M736.1,1160.5v-11H800v11h-26v101.5h-11.9v-101.5H736.1z"/>
		<path fill="#8C150D" d="M811.3,1149.5H823v47.2h59.4v-47.2h11.7v112.6h-11.7v-54.3H823v54.3h-11.7V1149.5z"/>
		<path fill="#8C150D" d="M972.7,1146.7c17.7,0,32.5,5.7,44.4,17.1c11.9,11.4,17.9,25.4,17.9,42c0,16.5-5.9,30.5-17.8,41.9
			c-11.9,11.5-26.4,17.2-43.5,17.2c-17.3,0-31.9-5.7-43.8-17.1c-11.9-11.4-17.9-25.3-17.9-41.5c0-10.8,2.7-20.8,8.1-30.1
			c5.4-9.2,12.8-16.5,22.2-21.7C951.6,1149.3,961.8,1146.7,972.7,1146.7z M973.2,1157.6c-8.6,0-16.8,2.2-24.5,6.5
			c-7.7,4.3-13.8,10.2-18.1,17.5c-4.3,7.4-6.5,15.5-6.5,24.6c0,13.4,4.8,24.7,14.4,33.9c9.6,9.2,21.2,13.8,34.8,13.8
			c9.1,0,17.4-2.1,25.1-6.4c7.7-4.2,13.7-10,18-17.4c4.3-7.4,6.5-15.5,6.5-24.5c0-8.9-2.2-17-6.5-24.2c-4.3-7.2-10.4-13-18.2-17.3
			C990.3,1159.8,982,1157.6,973.2,1157.6z"/>
		<path fill="#8C150D" d="M1052.9,1262.1v-112.6h24.2c17.5,0,30.1,1.4,38,4.1c11.3,3.8,20.2,10.5,26.5,19.9
			c6.4,9.4,9.6,20.7,9.6,33.7c0,11.3-2.5,21.2-7.6,29.8c-5.1,8.6-11.6,14.9-19.7,19c-8.1,4.1-19.4,6.1-33.9,6.1H1052.9z
			 M1064.1,1251.4h13.5c16.1,0,27.3-1,33.6-2.9c8.8-2.8,15.7-7.7,20.7-14.9c5-7.2,7.5-15.9,7.5-26.3c0-10.9-2.7-20.1-8.2-27.8
			c-5.4-7.7-13-13-22.8-15.8c-7.3-2.1-19.3-3.2-36.1-3.2h-8.2V1251.4z"/>
		<path fill="#8C150D" d="M1224,1146.7c17.7,0,32.5,5.7,44.4,17.1c11.9,11.4,17.9,25.4,17.9,42c0,16.5-5.9,30.5-17.8,41.9
			c-11.9,11.5-26.4,17.2-43.5,17.2c-17.3,0-31.9-5.7-43.8-17.1c-11.9-11.4-17.9-25.3-17.9-41.5c0-10.8,2.7-20.8,8.1-30.1
			c5.4-9.2,12.8-16.5,22.2-21.7C1203,1149.3,1213.1,1146.7,1224,1146.7z M1224.6,1157.6c-8.6,0-16.8,2.2-24.5,6.5
			c-7.7,4.3-13.8,10.2-18.1,17.5c-4.3,7.4-6.5,15.5-6.5,24.6c0,13.4,4.8,24.7,14.4,33.9c9.6,9.2,21.2,13.8,34.8,13.8
			c9.1,0,17.4-2.1,25.1-6.4c7.7-4.2,13.7-10,18-17.4c4.3-7.4,6.5-15.5,6.5-24.5c0-8.9-2.2-17-6.5-24.2c-4.3-7.2-10.4-13-18.2-17.3
			C1241.7,1159.8,1233.3,1157.6,1224.6,1157.6z"/>
		<path fill="#8C150D" d="M1304.4,1262.1v-112.6h2.5l77.7,86.3v-86.3h11.5v112.6h-2.6l-77-85.2v85.2H1304.4z"/>
		<path fill="#8C150D" d="M1407.5,1160.5v-11h63.9v11h-26v101.5h-11.9v-101.5H1407.5z"/>
		<path fill="#8C150D" d="M1481.3,1149.5h11.7v112.6h-11.7V1149.5z"/>
		<path fill="#8C150D" d="M1623,1170.4l-9.2,6.8c-5.1-6.4-11.2-11.2-18.3-14.5c-7.1-3.3-14.9-4.9-23.4-4.9c-9.3,0-17.9,2.2-25.9,6.5
			c-7.9,4.3-14.1,10.1-18.4,17.4c-4.4,7.3-6.5,15.4-6.5,24.5c0,13.7,4.9,25.2,14.6,34.4s22.1,13.8,36.9,13.8c16.3,0,30-6.2,41-18.5
			l9.2,6.7c-5.8,7.1-13.1,12.7-21.8,16.6c-8.7,3.9-18.4,5.9-29.2,5.9c-20.4,0-36.5-6.6-48.3-19.7c-9.9-11.1-14.8-24.4-14.8-40.1
			c0-16.5,6-30.3,18-41.6s27-16.9,45-16.9c10.9,0,20.7,2.1,29.5,6.2C1610.2,1157.1,1617.4,1162.9,1623,1170.4z"/>
		<path fill="#8C150D" d="M1628.9,1241.1l9.9-5.7c7,12.4,15,18.6,24.2,18.6c3.9,0,7.6-0.9,11-2.6c3.4-1.8,6.1-4.1,7.9-7.1
			c1.8-3,2.7-6.1,2.7-9.4c0-3.8-1.3-7.5-4-11.1c-3.6-5-10.3-11-20-18.1c-9.7-7.1-15.8-12.2-18.2-15.4c-4.1-5.3-6.2-11-6.2-17.2
			c0-4.9,1.2-9.4,3.6-13.4c2.4-4,5.9-7.2,10.3-9.5c4.4-2.3,9.2-3.5,14.4-3.5c5.5,0,10.6,1.3,15.4,3.9c4.8,2.6,9.8,7.5,15.2,14.5
			l-9.5,7c-4.4-5.6-8.1-9.3-11.2-11.1c-3.1-1.8-6.5-2.7-10.1-2.7c-4.7,0-8.6,1.4-11.5,4.1c-3,2.8-4.5,6.1-4.5,10.2
			c0,2.4,0.5,4.8,1.6,7.1c1.1,2.3,3,4.8,5.8,7.5c1.5,1.4,6.6,5.2,15.1,11.2c10.1,7.2,17,13.6,20.8,19.2c3.8,5.6,5.6,11.2,5.6,16.9
			c0,8.2-3.2,15.3-9.6,21.3c-6.4,6-14.2,9-23.4,9c-7.1,0-13.5-1.8-19.3-5.5C1639.1,1255.8,1633.8,1249.7,1628.9,1241.1z"/>
	</g>
</g>
<g id="ORTHODONTICS_xA0_Image_1_">
</g>
<g id="Rounded_Rectangle_2_xA0_Image_1_">
	
		<linearGradient id="SVGID_1_" gradientUnits="userSpaceOnUse" x1="48.75" y1="2065.3333" x2="48.75" y2="2019.6666" gradientTransform="matrix(5.2364 0 0 -5.2364 6.103516e-05 11720.9453)">
		<stop  offset="0.6435" style="stop-color:#B01936"/>
		<stop  offset="1" style="stop-color:#812727"/>
	</linearGradient>
	<path fill="url(#SVGID_1_)" d="M411.1,1271.3H99.5c-34.6,0-62.8-28.3-62.8-62.8v-332c0-34.6,28.3-62.8,62.8-62.8h311.6
		c34.6,0,62.8,28.3,62.8,62.8v332C473.9,1243,445.6,1271.3,411.1,1271.3z"/>
</g>
<g id="Layer_2_copy_xA0_Image_1_">
</g>
<g id="B">
	<g>
		<path fill="#FFFFFF" d="M69.1,1197.9L99,892.1c-3.7-3.7-5.2-7.9-5.2-12c12.6-7.3,25.7-15.2,38.7-22.5c0.5,1,2.6,5.2,4.7,13.6
			c2.6,7.9,5.2,12,8.9,12c3.1,0,18.9-3.1,47.7-9.9c33-7.3,52.4-11.5,59.2-12c20.4-2.6,39.3-4.2,57.6-5.2c18.3-1,38.7-1.6,60.7-1.6
			c7.9,0,15.7,1.6,24.1,4.7c8.4,3.1,14.1,7.3,17.3,11.5c-2.1,20.9-16.2,40.3-42.4,59.7c-10.5,7.3-36.1,22-75.9,42.9
			c51.8,0,87.4,1.6,106.3,6.3c39.3,8.4,57.1,27.8,53.9,57.1c-3.7,35.1-30.9,67.5-82.7,97.9c-43.5,25.1-98.4,46.1-166,62.8
			c-60.2,14.7-113.6,22-160.2,22.5c5.2-4.2,9.9-7.9,13.1-10.5C65.5,1204.2,68.6,1200.6,69.1,1197.9z M132,1013.1l-5.8,2.6
			L111.5,1187c61.8,0,122.5-9.9,181.2-29.3c73.8-24.1,112.6-56.6,116.8-96.3c1.6-17.8-6.3-31.9-24.1-41.9
			c-22-11.5-57.1-17.3-106.3-17.3c-15.2,0-33,1-54.5,3.7C175.4,1010.5,144.5,1013.1,132,1013.1z M137.2,903.7l-6.3,82.2
			c32.5,0,72.3-5.8,118.9-16.2c52.9-12,88.5-25.7,107.3-40.8c4.7-4.2,8.4-8.4,10.5-12.6c2.1-4.2,3.1-9.9,3.7-16.2
			c0.5-6.3-6.3-11-20.9-14.1c-14.7-3.1-35.6-4.7-62.8-4.7c-25.7,0-50.8,2.1-75.9,5.8S162.3,896.3,137.2,903.7z"/>
	</g>
</g>
</svg>
